<mxfile host="65bd71144e">
    <diagram id="9X32ZYshh2zQu-bvIVrp" name="Page-1">
        <mxGraphModel dx="532" dy="648" grid="1" gridSize="10" guides="1" tooltips="1" connect="1" arrows="1" fold="1" page="1" pageScale="1" pageWidth="827" pageHeight="1169" math="0" shadow="0">
            <root>
                <mxCell id="0"/>
                <mxCell id="1" parent="0"/>
                <mxCell id="3" value="" style="shape=umlActor;verticalLabelPosition=bottom;verticalAlign=top;html=1;outlineConnect=0;fontFamily=Comic Sans MS;fontSize=100;strokeColor=#3333FF;strokeWidth=5;" vertex="1" parent="1">
                    <mxGeometry x="70" y="40" width="70" height="120" as="geometry"/>
                </mxCell>
            </root>
        </mxGraphModel>
    </diagram>
</mxfile>